<?xml version="1.0" encoding="UTF-8" standalone="no"?>
<!-- Created with Inkscape (http://www.inkscape.org/) -->

<svg
   width="314.56039mm"
   height="95.176491mm"
   viewBox="0 0 314.56039 95.176491"
   version="1.1"
   id="svg410"
   sodipodi:docname="logotipo.svg"
   inkscape:version="1.2.2 (732a01da63, 2022-12-09)"
   xmlns:inkscape="http://www.inkscape.org/namespaces/inkscape"
   xmlns:sodipodi="http://sodipodi.sourceforge.net/DTD/sodipodi-0.dtd"
   xmlns:xlink="http://www.w3.org/1999/xlink"
   xmlns="http://www.w3.org/2000/svg"
   xmlns:svg="http://www.w3.org/2000/svg">
  <sodipodi:namedview
     id="namedview49"
     pagecolor="#ffffff"
     bordercolor="#000000"
     borderopacity="0.25"
     inkscape:showpageshadow="2"
     inkscape:pageopacity="0.0"
     inkscape:pagecheckerboard="0"
     inkscape:deskcolor="#d1d1d1"
     inkscape:document-units="mm"
     showgrid="false"
     inkscape:zoom="0.5244389"
     inkscape:cx="257.41797"
     inkscape:cy="-116.31479"
     inkscape:window-width="1920"
     inkscape:window-height="1009"
     inkscape:window-x="-8"
     inkscape:window-y="28"
     inkscape:window-maximized="1"
     inkscape:current-layer="svg410" />
  <defs
     id="defs407">
    <linearGradient
       id="linearGradient2168">
      <stop
         style="stop-color:#000000;stop-opacity:1;"
         offset="0"
         id="stop2164" />
      <stop
         style="stop-color:#ffffff;stop-opacity:1;"
         offset="1"
         id="stop2166" />
    </linearGradient>
    <linearGradient
       id="linearGradient2160">
      <stop
         style="stop-color:#350000;stop-opacity:1;"
         offset="0"
         id="stop2156" />
      <stop
         style="stop-color:#fd0000;stop-opacity:1;"
         offset="1"
         id="stop2158" />
    </linearGradient>
    <linearGradient
       id="linearGradient1941">
      <stop
         style="stop-color:#000000;stop-opacity:1;"
         offset="0"
         id="stop1937" />
      <stop
         style="stop-color:#ffffff;stop-opacity:1;"
         offset="1"
         id="stop1939" />
    </linearGradient>
    <rect
       x="97.492661"
       y="155.71745"
       width="589.01819"
       height="329.03775"
       id="rect635" />
    <rect
       x="97.492661"
       y="155.71745"
       width="589.01819"
       height="329.03775"
       id="rect838" />
    <filter
       style="color-interpolation-filters:sRGB"
       id="filter7564"
       x="-0.016893303"
       y="-0.018019353"
       width="1.0337866"
       height="1.0360387">
      <feGaussianBlur
         stdDeviation="0.43365749"
         id="feGaussianBlur7566" />
    </filter>
    <linearGradient
       xlink:href="#linearGradient1941"
       id="linearGradient2069"
       gradientUnits="userSpaceOnUse"
       x1="-249.73091"
       y1="190.9523"
       x2="-249.44933"
       y2="76.046799" />
    <linearGradient
       xlink:href="#linearGradient1941"
       id="linearGradient2071"
       gradientUnits="userSpaceOnUse"
       x1="-248.45537"
       y1="84.645103"
       x2="-244.22862"
       y2="27.528065" />
    <linearGradient
       xlink:href="#linearGradient2168"
       id="linearGradient2073"
       gradientUnits="userSpaceOnUse"
       x1="119.4588"
       y1="228.63084"
       x2="265.49619"
       y2="-661.00562" />
    <linearGradient
       xlink:href="#linearGradient1941"
       id="linearGradient2075"
       gradientUnits="userSpaceOnUse"
       x1="-273.10977"
       y1="182.105"
       x2="-436.99478"
       y2="36.368046" />
    <linearGradient
       xlink:href="#linearGradient2160"
       id="linearGradient2162"
       x1="-66.995171"
       y1="127.54162"
       x2="-65.203857"
       y2="32.243668"
       gradientUnits="userSpaceOnUse" />
    <linearGradient
       xlink:href="#linearGradient2168"
       id="linearGradient2170"
       x1="-151.40421"
       y1="142.10901"
       x2="-151.82852"
       y2="75.296936"
       gradientUnits="userSpaceOnUse" />
    <linearGradient
       xlink:href="#linearGradient2168"
       id="linearGradient2276"
       gradientUnits="userSpaceOnUse"
       x1="-151.40421"
       y1="142.10901"
       x2="-151.82852"
       y2="75.296936" />
    <linearGradient
       xlink:href="#linearGradient2168"
       id="linearGradient2278"
       gradientUnits="userSpaceOnUse"
       x1="-151.40421"
       y1="142.10901"
       x2="-151.82852"
       y2="75.296936" />
    <linearGradient
       xlink:href="#linearGradient2168"
       id="linearGradient2280"
       gradientUnits="userSpaceOnUse"
       x1="-151.40421"
       y1="142.10901"
       x2="-151.82852"
       y2="75.296936" />
    <linearGradient
       xlink:href="#linearGradient2168"
       id="linearGradient2282"
       gradientUnits="userSpaceOnUse"
       x1="-151.40421"
       y1="142.10901"
       x2="-151.82852"
       y2="75.296936" />
    <linearGradient
       xlink:href="#linearGradient2168"
       id="linearGradient2284"
       gradientUnits="userSpaceOnUse"
       x1="-151.40421"
       y1="142.10901"
       x2="-151.82852"
       y2="75.296936" />
    <linearGradient
       xlink:href="#linearGradient2168"
       id="linearGradient2286"
       gradientUnits="userSpaceOnUse"
       x1="-75.5718"
       y1="67.505234"
       x2="-75.798515"
       y2="29.216623" />
    <linearGradient
       xlink:href="#linearGradient2168"
       id="linearGradient2288"
       gradientUnits="userSpaceOnUse"
       x1="-63.463619"
       y1="76.586365"
       x2="-65.203857"
       y2="32.243668" />
  </defs>
  <g
     id="layer1"
     transform="translate(334.61131,-44.370608)">
    <rect
       style="fill:#000000;fill-opacity:1;stroke-width:0.555339;stroke-opacity:0"
       id="rect1344"
       width="300.95624"
       height="9.6265469"
       x="-331.3559"
       y="118.05186" />
    <rect
       style="fill:#ffffff;fill-opacity:1;stroke-width:0.555339;stroke-opacity:0"
       id="rect424"
       width="300.95624"
       height="9.6265469"
       x="-331.3559"
       y="115.0119" />
    <text
       xml:space="preserve"
       transform="matrix(0.41056042,0,0,0.41056042,-373.36214,-14.373123)"
       id="text633"
       style="font-size:144px;font-family:Arial;-inkscape-font-specification:Arial;white-space:pre;shape-inside:url(#rect635);display:inline;fill:url(#linearGradient2069);fill-opacity:1;stroke:none;stroke-width:2.10898;stroke-opacity:1"><tspan
         x="97.492188"
         y="288.9168"
         id="tspan1083"><tspan
           style="font-family:Fonstars;-inkscape-font-specification:'Fonstars, Normal'"
           id="tspan1081">TR</tspan></tspan></text>
    <path
       id="path1164"
       style="mix-blend-mode:normal;fill:url(#linearGradient2071);fill-opacity:1;stroke:none;stroke-width:0.558001;stroke-opacity:1;filter:url(#filter7564)"
       d="m -230.45622,72.791855 -0.0967,4.429708 0.81288,4.68602 0.52606,7.271391 a 16.480097,16.480097 0 0 0 -12.20701,-5.952091 16.480097,16.480097 0 0 0 -16.95038,15.996444 16.480097,16.480097 0 0 0 13.66532,16.712153 16.480097,16.480097 0 0 0 15.89309,14.60841 16.480097,16.480097 0 0 0 16.70027,-13.58315 16.480097,16.480097 0 0 0 15.33653,-15.95407 16.480097,16.480097 0 0 0 -15.99593,-16.950387 16.480097,16.480097 0 0 0 -12.16152,4.856553 l 0.56844,-6.841954 1.29862,-4.539777 0.13075,-4.52117 z" />
    <g
       aria-label="K"
       transform="matrix(0.4016692,-0.08498064,0.08498064,0.4016692,-266.11839,-3.8326812)"
       id="text836"
       style="font-size:144px;font-family:Fonstars;-inkscape-font-specification:'Fonstars, Normal';white-space:pre;shape-inside:url(#rect838);display:inline;fill:url(#linearGradient2075);fill-opacity:1;stroke:none;stroke-width:2.10898;stroke-opacity:1">
      <path
         d="m 150.62819,200.2128 v 0.864 c -2.592,2.448 -4.032,6.768 -6.048,9.792 -0.864,1.152 -2.592,2.448 -3.312,3.6 l -0.72,2.016 -1.44,1.008 c -1.584,2.16 -2.16,4.752 -3.744,7.056 -0.576,0.864 -1.44,1.728 -2.16,2.736 l -1.872,1.728 c -0.576,0.72 -0.576,2.16 -0.864,2.88 l -0.432,0.144 c -0.576,-1.584 0,-3.312 0.432,-4.464 0.432,-1.872 -1.008,-2.448 -0.72,-3.888 0.144,-1.008 0.864,-3.168 0.72,-4.032 -0.144,-0.144 -0.72,-0.864 -0.72,-1.008 -0.288,-1.008 0.288,-2.16 0.432,-2.88 0.288,-1.152 -0.288,-2.304 -0.432,-3.024 -0.144,-0.576 0.432,-0.864 0.432,-1.296 0.144,-0.576 -0.432,-1.296 -0.432,-1.728 0,-0.72 0.72,-1.44 0.432,-2.592 -0.72,-2.448 -0.576,-7.056 0,-9.792 0.288,-1.296 -0.432,-2.448 -0.432,-3.168 0.144,-0.864 0.432,-2.736 0.72,-3.6 -0.144,-2.736 -0.144,-5.616 -0.288,-8.352 1.152,-1.152 2.304,-3.024 3.456,-3.888 -0.144,-1.44 -1.008,-1.584 -1.44,-2.736 -1.728,0.144 -2.304,0 -3.456,-0.432 -0.864,-0.144 -1.296,0.432 -1.584,0.432 -0.864,0.288 -5.616,-0.288 -5.904,-0.432 -1.296,-0.288 -2.736,0.288 -3.6,0.432 -1.152,0.288 -2.016,-0.144 -2.592,-0.432 -1.296,-0.288 -2.592,0.288 -3.456,0.432 -1.44,0.432 -3.168,-0.144 -4.032,-0.432 -2.016,-0.432 -4.032,1.296 -5.328,0 -3.312003,0 -3.312003,0 -4.752003,1.584 0.288,2.88 1.872,4.32 4.320003,5.184 -0.288,2.16 -1.296,6.48 -0.864,9.072 0,0.72 0.576,1.584 0.432,2.736 -0.288,1.296 -0.576,4.32 -0.288,6.048 0.864,3.6 0.576,8.064 -0.144,11.52 -0.288,1.152 0.432,2.16 0.576,3.024 0.288,1.152 -0.288,4.032 -0.432,5.184 -0.144,1.008 0.864,1.584 0.432,2.736 0,0.288 -0.576,0.72 -0.576,0.864 -0.432,1.152 0.432,2.016 0.576,2.736 0.288,0.864 -0.576,1.296 -0.576,1.872 l 0.576,2.88 c 0,0.288 -0.576,1.008 -0.576,1.296 -0.288,1.296 0.576,2.016 0.576,3.168 0.144,1.296 -0.288,3.744 -0.432,4.608 -0.288,1.584 0.432,2.736 0.72,3.744 0.144,1.152 -0.576,2.88 -0.72,3.6 -0.288,1.296 0.576,1.44 0.432,2.592 0,0.864 -0.576,3.168 -0.432,3.888 l 0.72,1.872 c -0.144,0.144 -0.576,0.864 -0.72,1.008 -0.576,2.16 1.152,2.88 0.72,5.04 -1.152,4.896 0,10.08 -0.864,14.976 -0.288,0.864 0.432,1.728 0.576,2.304 0,1.872 -0.144,3.6 -0.144,5.472 -0.144,0.288 -0.576,0.72 -0.432,1.296 0,0.432 0.72,1.152 0.576,2.016 0,0.144 -0.576,0.432 -0.576,0.576 -0.432,1.296 1.296,2.16 0.576,3.888 0,0.144 -0.576,0.576 -0.576,0.72 -0.576,1.584 0.72,2.448 0.576,4.032 0,0.864 -0.72,1.44 -0.432,2.592 0.144,0.576 0.72,1.152 0.432,2.016 0,0.144 -0.576,0.72 -0.576,0.864 -0.288,0.864 0.288,2.736 0.432,3.456 l -0.432,3.888 c 0,0.432 0.576,1.008 0.432,1.584 -0.432,1.584 -2.880003,3.312 -3.888003,4.32 -0.144,1.008 -0.144,1.728 0.432001,2.16 1.007999,0.72 7.344002,0.864 9.504002,0.432 1.296,-0.288 2.88,0.72 4.32,0.432 3.168,-0.432 7.2,-0.144 10.224,-0.288 l 3.024,-0.144 c 2.304,0.576 6.768,0.72 8.64,-0.432 0.144,-0.432 0.144,-0.288 0.288,-0.432 -0.144,-2.592 -3.456,-4.608 -4.176,-7.776 -0.144,-1.152 0.432,-1.872 0.72,-2.448 0.288,-1.008 -0.576,-2.448 -0.72,-3.168 -0.432,-1.728 0.864,-2.304 0.72,-3.744 -0.432,-2.016 -1.008,-5.184 -0.432,-7.632 0,-0.432 0.432,-1.872 0.144,-2.736 -0.432,-1.872 -0.576,-5.76 0,-7.92 0,-2.16 -0.144,-4.464 -0.144,-6.624 0.576,-1.728 2.448,-3.024 3.456,-4.464 0.864,-1.296 1.44,-2.592 2.304,-4.032 0.576,-0.72 1.584,-1.296 2.016,-2.016 1.008,-1.296 3.6,-7.056 4.752,-7.488 0.144,-0.288 0,-0.144 0.432,-0.288 0.576,1.008 0.432,1.872 0.864,3.024 1.008,2.448 2.88,4.608 3.888,6.912 0.432,1.008 0.288,1.584 0.72,2.592 0.432,1.296 1.584,2.16 2.16,3.312 1.44,2.88 2.016,5.616 3.168,8.64 0.864,2.016 2.304,3.6 3.024,5.472 l 0.432,2.16 c 0.72,1.728 2.304,3.168 3.168,5.04 1.44,3.456 2.016,7.056 3.888,10.224 1.008,1.728 -0.64814,4.85757 -0.0721,6.87357 0.288,0.72 0.34071,1.78821 0.0527,2.07621 -0.23866,1.6864 0.27692,1.09913 -0.84457,2.85822 0,0.576 -2.66416,13.31239 -2.52016,13.45639 0.432,1.008 3.024,2.016 4.32,1.872 0.864,-0.288 2.60333,0.42178 4.04333,0.85378 2.304,0.576 3.11133,0.35021 5.27133,0.78221 3.312,0.864 7.95606,2.39751 9.90799,2.20859 3.024,-0.576 7.90971,2.55084 10.06971,2.26284 1.296,-0.144 4.54764,-6.68342 5.41164,-7.25942 0.576,-0.288 -2.37692,-12.16615 -1.94492,-12.59815 -0.288,-3.024 1.58508,-4.02624 0.14508,-5.89824 -1.008,-1.152 -2.304,-3.456 -2.88,-4.896 0,-0.72 -0.144,-1.44 -0.144,-2.16 -0.288,-0.432 -1.008,-1.152 -1.152,-1.584 -0.288,-0.576 -0.144,-1.152 -0.432,-1.728 -0.432,-0.72 -1.44,-1.152 -1.728,-2.016 -1.008,-2.304 -1.44,-4.608 -2.592,-6.912 -0.432,-0.72 -1.584,-1.584 -2.016,-2.304 0,-0.72 -0.144,-1.44 -0.144,-2.16 -0.432,-1.152 -1.584,-2.304 -2.16,-3.312 l -1.296,-3.888 c -0.864,-1.584 -2.304,-3.168 -3.024,-4.752 -0.576,-1.728 -1.152,-3.456 -1.728,-5.328 -0.432,-0.576 -1.296,-0.864 -1.584,-1.44 -0.288,-0.432 0,-1.008 -0.144,-1.584 -0.288,-0.576 -1.152,-1.152 -1.296,-1.728 -0.72,-1.296 -0.72,-2.736 -1.44,-4.032 -0.432,-1.008 -1.584,-1.728 -2.16,-2.592 -2.16,-3.6 -3.168,-7.776 -4.896,-11.808 -0.576,-1.296 -1.728,-2.304 -2.448,-3.456 -1.008,-1.584 -1.152,-3.6 -1.872,-5.472 -0.864,-1.728 -2.16,-3.888 -3.024,-5.76 0.72,-0.864 1.008,-1.872 1.728,-2.88 l 1.296,-1.008 c 1.152,-1.584 1.728,-3.456 2.736,-5.04 l 1.584,-1.296 c 0.864,-1.296 1.008,-2.736 1.872,-3.888 1.296,-1.728 3.168,-3.312 4.32,-5.04 1.296,-1.872 1.872,-3.888 3.168,-5.616 0.72,-1.152 2.16,-2.016 3.024,-3.312 0.432,-0.72 0.288,-1.728 0.864,-2.592 0.288,-0.576 1.44,-1.152 1.872,-1.872 l 0.72,-2.16 c 1.296,-1.872 3.312,-3.312 4.464,-5.184 0.144,-0.576 0.288,-1.152 0.432,-1.584 0.72,-1.152 2.16,-2.016 2.88,-3.024 0.864,-1.152 1.008,-2.448 1.728,-3.744 1.584,-2.448 4.464,-4.752 6.912,-6.48 0,-0.72 0,-1.152 -0.432,-1.44 -1.44,-2.16 -3.888,-0.432 -5.76,-1.008 -0.72,0 -1.584,-0.72 -2.592,-0.432 -0.576,0.144 -1.44,0.72 -2.448,0.432 -0.576,-0.144 -1.584,-0.576 -2.592,-0.432 -0.576,0.144 -1.152,0.72 -2.16,0.432 -0.432,0 -1.296,-0.288 -2.016,-0.144 -0.432,0.144 -0.864,0.576 -1.728,0.432 -2.304,-0.432 -5.472,-0.288 -8.064,-0.288 l -1.872,0.288 c -1.296,-0.288 -3.312,-1.296 -5.184,-0.864 -0.72,0.144 -1.728,0.864 -2.16,0.864 -0.72,0.144 -1.584,-0.432 -2.592,-0.432 l -1.584,1.152 c 0.432,2.88 3.6,3.456 4.608,5.76 0.144,0.144 0,0 0,0.288 -0.576,1.152 -2.016,2.304 -2.592,3.456 -1.152,1.584 -1.584,3.312 -2.736,4.896 -0.72,1.152 -2.304,1.872 -3.024,3.168 0,0.432 -0.144,1.008 -0.144,1.44 -0.288,0.432 -2.88,3.888 -3.312,4.32 -0.144,0.144 -0.144,0.144 -0.576,0.288 z"
         id="path7449"
         style="fill:url(#linearGradient2073);fill-opacity:1;stroke:none;stroke-opacity:1" />
    </g>
    <g
       id="g2293"
       transform="matrix(0.84431139,0,0,0.76143935,-7.9493714,-34.046957)"
       style="fill:url(#linearGradient2170);fill-opacity:1;stroke:none;stroke-opacity:1">
      <g
         id="g2284"
         style="fill:url(#linearGradient2282);fill-opacity:1;stroke:none;stroke-opacity:1">
        <path
           id="circle1698"
           style="fill:url(#linearGradient2276);fill-opacity:1;stroke:none;stroke-width:0.558001;stroke-opacity:1"
           d="m -145.81302,170.53317 a 16.480097,16.480097 0 0 1 -16.4801,16.4801 16.480097,16.480097 0 0 1 -16.4801,-16.4801 16.480097,16.480097 0 0 1 16.4801,-16.48009 16.480097,16.480097 0 0 1 16.4801,16.48009 z" />
        <path
           id="circle1700"
           style="fill:url(#linearGradient2278);fill-opacity:1;stroke:none;stroke-width:0.558001;stroke-opacity:1"
           d="m -118.9433,170.53317 a 16.480097,16.480097 0 0 1 -16.4801,16.4801 16.480097,16.480097 0 0 1 -16.4801,-16.4801 16.480097,16.480097 0 0 1 16.4801,-16.48009 16.480097,16.480097 0 0 1 16.4801,16.48009 z" />
        <path
           id="rect1754"
           style="fill:url(#linearGradient2280);fill-opacity:1;stroke:none;stroke-width:0.558001;stroke-opacity:1"
           d="m -148.67913,118.94331 28.30278,44.78287 -56.22556,-1.17972 z" />
      </g>
      <path
         id="path2286"
         style="fill:url(#linearGradient2284);fill-opacity:1;stroke:none;stroke-width:0.558001;stroke-opacity:1"
         d="m -150.35464,173.61908 3.44828,-2e-5 0.66949,12.39717 1.1666,4.57553 v 4.52308 h -7.52352 l 0.0317,-4.43033 0.94813,-4.6606 z" />
    </g>
    <g
       id="g2154"
       style="fill:url(#linearGradient2162);fill-opacity:1">
      <path
         id="rect1691"
         style="fill:url(#linearGradient2286);fill-opacity:1;stroke:none;stroke-width:0.281419"
         d="m -90.733979,57.154486 20.77861,28.728969 -21.32066,29.271035 -19.333141,-29.451719 z" />
      <path
         id="path2295"
         style="fill:url(#linearGradient2288);fill-opacity:1;stroke:none;stroke-width:0.447408"
         d="m -58.275679,68.496688 a 13.914334,12.548594 0 0 0 -13.9144,12.548593 13.914334,12.548594 0 0 0 4.57284,9.29401 l 20.835938,24.435199 20.30936,-24.261049 a 13.914334,12.548594 0 0 0 3.48867,-4.16771 l 0.0982,-0.1173 -0.0419,0.001 a 13.914334,12.548594 0 0 0 1.25212,-5.18418 13.914334,12.548594 0 0 0 -13.91439,-12.548593 13.914334,12.548594 0 0 0 -11.33936,5.287543 13.914334,12.548594 0 0 0 -11.347108,-5.287543 z" />
    </g>
    <rect
       style="fill:#ffffff;fill-opacity:0;stroke:none;stroke-width:0.347373;stroke-dasharray:none;stroke-dashoffset:0;stroke-opacity:1"
       id="rect8300"
       width="314.21304"
       height="94.829117"
       x="-334.43762"
       y="44.544296" />
  </g>
</svg>
