<?xml version="1.0" encoding="UTF-8" standalone="no"?>
<svg
   version="1.1"
   id="Layer_1"
   x="0px"
   y="0px"
   viewBox="0 0 122.88 121.42"
   style="enable-background:new 0 0 122.88 121.42"
   xml:space="preserve"
   sodipodi:docname="male-icon.svg"
   inkscape:version="1.2.2 (732a01da63, 2022-12-09)"
   xmlns:inkscape="http://www.inkscape.org/namespaces/inkscape"
   xmlns:sodipodi="http://sodipodi.sourceforge.net/DTD/sodipodi-0.dtd"
   xmlns="http://www.w3.org/2000/svg"
   xmlns:svg="http://www.w3.org/2000/svg"><defs
     id="defs11" /><sodipodi:namedview
     id="namedview9"
     pagecolor="#ffffff"
     bordercolor="#000000"
     borderopacity="0.25"
     inkscape:showpageshadow="2"
     inkscape:pageopacity="0.0"
     inkscape:pagecheckerboard="0"
     inkscape:deskcolor="#d1d1d1"
     showgrid="false"
     inkscape:zoom="2.4139002"
     inkscape:cx="49.504946"
     inkscape:cy="14.913624"
     inkscape:window-width="1280"
     inkscape:window-height="953"
     inkscape:window-x="1912"
     inkscape:window-y="-8"
     inkscape:window-maximized="1"
     inkscape:current-layer="Layer_1" /><style
     type="text/css"
     id="style2">.st0{fill-rule:evenodd;clip-rule:evenodd;}</style><g
     id="g6"><path
       class="st0"
       d="M0,121.42l0-19.63c10.5-4.67,42.65-13.56,44.16-26.41c0.34-2.9-6.5-13.96-8.07-19.26 c-3.36-5.35-4.56-13.85-0.89-19.5c1.46-2.25,0.84-10.44,0.84-13.53c0-30.77,53.92-30.78,53.92,0c0,3.89-0.9,11.04,1.22,14.1 c3.54,5.12,1.71,14.19-1.27,18.93c-1.91,5.57-9.18,16.11-8.56,19.26c2.31,11.74,32.13,19.63,41.52,23.8l0,22.23L0,121.42L0,121.42z"
       id="path4"
       style="fill:#ffffff"
       inkscape:export-filename="person.png"
       inkscape:export-xdpi="96"
       inkscape:export-ydpi="96" /></g></svg>
